<mxfile host="app.diagrams.net" modified="2023-08-15T06:49:18.295Z" agent="Mozilla/5.0 (Windows NT 10.0; Win64; x64) AppleWebKit/537.36 (KHTML, like Gecko) Chrome/115.0.0.0 Safari/537.36" etag="HVkAn1Q5jsz_TXUiR3xh" version="21.6.8" type="google">
  <diagram name="Sayfa -1" id="jnzvnTUpRD-H69lgYlGA">
    <mxGraphModel grid="1" page="1" gridSize="10" guides="1" tooltips="1" connect="1" arrows="1" fold="1" pageScale="1" pageWidth="827" pageHeight="1169" math="0" shadow="0">
      <root>
        <mxCell id="0" />
        <mxCell id="1" parent="0" />
        <mxCell id="jyzeREe8RjWVEG3jsHg6-3" style="edgeStyle=orthogonalEdgeStyle;rounded=0;orthogonalLoop=1;jettySize=auto;html=1;exitX=0.5;exitY=1;exitDx=0;exitDy=0;entryX=0.5;entryY=0;entryDx=0;entryDy=0;" edge="1" parent="1" source="jyzeREe8RjWVEG3jsHg6-1" target="jyzeREe8RjWVEG3jsHg6-2">
          <mxGeometry relative="1" as="geometry" />
        </mxCell>
        <mxCell id="jyzeREe8RjWVEG3jsHg6-1" value="Başlangıç" style="rounded=1;whiteSpace=wrap;html=1;" vertex="1" parent="1">
          <mxGeometry x="300" width="220" height="40" as="geometry" />
        </mxCell>
        <mxCell id="jyzeREe8RjWVEG3jsHg6-6" style="edgeStyle=orthogonalEdgeStyle;rounded=0;orthogonalLoop=1;jettySize=auto;html=1;exitX=0.5;exitY=1;exitDx=0;exitDy=0;entryX=0.5;entryY=0;entryDx=0;entryDy=0;" edge="1" parent="1" source="jyzeREe8RjWVEG3jsHg6-2" target="jyzeREe8RjWVEG3jsHg6-4">
          <mxGeometry relative="1" as="geometry" />
        </mxCell>
        <mxCell id="jyzeREe8RjWVEG3jsHg6-2" value="kelime oluştur" style="rounded=1;whiteSpace=wrap;html=1;" vertex="1" parent="1">
          <mxGeometry x="300" y="60" width="220" height="30" as="geometry" />
        </mxCell>
        <mxCell id="jyzeREe8RjWVEG3jsHg6-34" style="edgeStyle=orthogonalEdgeStyle;rounded=0;orthogonalLoop=1;jettySize=auto;html=1;exitX=0.5;exitY=1;exitDx=0;exitDy=0;entryX=0.5;entryY=0;entryDx=0;entryDy=0;" edge="1" parent="1" source="jyzeREe8RjWVEG3jsHg6-4" target="jyzeREe8RjWVEG3jsHg6-33">
          <mxGeometry relative="1" as="geometry" />
        </mxCell>
        <mxCell id="jyzeREe8RjWVEG3jsHg6-4" value="asma platformu oluştur" style="rounded=1;whiteSpace=wrap;html=1;" vertex="1" parent="1">
          <mxGeometry x="300" y="110" width="220" height="30" as="geometry" />
        </mxCell>
        <mxCell id="jyzeREe8RjWVEG3jsHg6-14" style="edgeStyle=orthogonalEdgeStyle;rounded=0;orthogonalLoop=1;jettySize=auto;html=1;exitX=0.5;exitY=1;exitDx=0;exitDy=0;entryX=0.5;entryY=0;entryDx=0;entryDy=0;" edge="1" parent="1" source="jyzeREe8RjWVEG3jsHg6-7" target="jyzeREe8RjWVEG3jsHg6-9">
          <mxGeometry relative="1" as="geometry" />
        </mxCell>
        <mxCell id="jyzeREe8RjWVEG3jsHg6-7" value="kullanıcının girdiği harf" style="rounded=1;whiteSpace=wrap;html=1;" vertex="1" parent="1">
          <mxGeometry x="300" y="230" width="220" height="30" as="geometry" />
        </mxCell>
        <mxCell id="jyzeREe8RjWVEG3jsHg6-15" style="edgeStyle=orthogonalEdgeStyle;rounded=0;orthogonalLoop=1;jettySize=auto;html=1;exitX=0;exitY=1;exitDx=0;exitDy=0;" edge="1" parent="1" source="jyzeREe8RjWVEG3jsHg6-9">
          <mxGeometry relative="1" as="geometry">
            <mxPoint x="195" y="450" as="targetPoint" />
          </mxGeometry>
        </mxCell>
        <mxCell id="jyzeREe8RjWVEG3jsHg6-16" style="edgeStyle=orthogonalEdgeStyle;rounded=0;orthogonalLoop=1;jettySize=auto;html=1;exitX=1;exitY=1;exitDx=0;exitDy=0;" edge="1" parent="1" source="jyzeREe8RjWVEG3jsHg6-9">
          <mxGeometry relative="1" as="geometry">
            <mxPoint x="620" y="440" as="targetPoint" />
          </mxGeometry>
        </mxCell>
        <mxCell id="jyzeREe8RjWVEG3jsHg6-9" value="girilen harf kelimede mi?" style="rhombus;whiteSpace=wrap;html=1;" vertex="1" parent="1">
          <mxGeometry x="305" y="310" width="210" height="80" as="geometry" />
        </mxCell>
        <mxCell id="jyzeREe8RjWVEG3jsHg6-17" style="edgeStyle=orthogonalEdgeStyle;rounded=0;orthogonalLoop=1;jettySize=auto;html=1;exitX=0.5;exitY=1;exitDx=0;exitDy=0;entryX=0.5;entryY=0;entryDx=0;entryDy=0;" edge="1" parent="1" source="jyzeREe8RjWVEG3jsHg6-10" target="jyzeREe8RjWVEG3jsHg6-13">
          <mxGeometry relative="1" as="geometry" />
        </mxCell>
        <mxCell id="jyzeREe8RjWVEG3jsHg6-10" value="Kelimeye harfi ekle" style="rounded=1;whiteSpace=wrap;html=1;" vertex="1" parent="1">
          <mxGeometry x="110" y="450" width="190" height="30" as="geometry" />
        </mxCell>
        <mxCell id="jyzeREe8RjWVEG3jsHg6-30" style="edgeStyle=orthogonalEdgeStyle;rounded=0;orthogonalLoop=1;jettySize=auto;html=1;exitX=0.5;exitY=1;exitDx=0;exitDy=0;entryX=0.5;entryY=0;entryDx=0;entryDy=0;" edge="1" parent="1" source="jyzeREe8RjWVEG3jsHg6-11" target="jyzeREe8RjWVEG3jsHg6-24">
          <mxGeometry relative="1" as="geometry" />
        </mxCell>
        <mxCell id="jyzeREe8RjWVEG3jsHg6-11" value="kalan canı bir düşür" style="rounded=1;whiteSpace=wrap;html=1;" vertex="1" parent="1">
          <mxGeometry x="510" y="440" width="190" height="30" as="geometry" />
        </mxCell>
        <mxCell id="jyzeREe8RjWVEG3jsHg6-12" value="oyun bitti" style="rounded=1;whiteSpace=wrap;html=1;" vertex="1" parent="1">
          <mxGeometry x="310" y="740" width="190" height="30" as="geometry" />
        </mxCell>
        <mxCell id="jyzeREe8RjWVEG3jsHg6-22" style="edgeStyle=orthogonalEdgeStyle;rounded=0;orthogonalLoop=1;jettySize=auto;html=1;exitX=0;exitY=0.5;exitDx=0;exitDy=0;entryX=0;entryY=0.5;entryDx=0;entryDy=0;" edge="1" parent="1" source="jyzeREe8RjWVEG3jsHg6-13" target="jyzeREe8RjWVEG3jsHg6-7">
          <mxGeometry relative="1" as="geometry">
            <Array as="points">
              <mxPoint x="70" y="580" />
              <mxPoint x="70" y="245" />
            </Array>
          </mxGeometry>
        </mxCell>
        <mxCell id="jyzeREe8RjWVEG3jsHg6-26" style="edgeStyle=orthogonalEdgeStyle;rounded=0;orthogonalLoop=1;jettySize=auto;html=1;exitX=1;exitY=1;exitDx=0;exitDy=0;entryX=0.3;entryY=0;entryDx=0;entryDy=0;entryPerimeter=0;" edge="1" parent="1" source="jyzeREe8RjWVEG3jsHg6-13" target="jyzeREe8RjWVEG3jsHg6-12">
          <mxGeometry relative="1" as="geometry">
            <Array as="points">
              <mxPoint x="410" y="600" />
              <mxPoint x="410" y="740" />
            </Array>
          </mxGeometry>
        </mxCell>
        <mxCell id="jyzeREe8RjWVEG3jsHg6-13" value="Kelime tamamlandı mı?&lt;br&gt;" style="rhombus;whiteSpace=wrap;html=1;" vertex="1" parent="1">
          <mxGeometry x="115" y="540" width="180" height="80" as="geometry" />
        </mxCell>
        <mxCell id="jyzeREe8RjWVEG3jsHg6-18" value="evet" style="text;html=1;align=center;verticalAlign=middle;resizable=0;points=[];autosize=1;strokeColor=none;fillColor=none;" vertex="1" parent="1">
          <mxGeometry x="175" y="328" width="50" height="30" as="geometry" />
        </mxCell>
        <mxCell id="jyzeREe8RjWVEG3jsHg6-19" value="hayır" style="text;html=1;align=center;verticalAlign=middle;resizable=0;points=[];autosize=1;strokeColor=none;fillColor=none;" vertex="1" parent="1">
          <mxGeometry x="580" y="335" width="50" height="30" as="geometry" />
        </mxCell>
        <mxCell id="jyzeREe8RjWVEG3jsHg6-23" value="hayır" style="text;html=1;align=center;verticalAlign=middle;resizable=0;points=[];autosize=1;strokeColor=none;fillColor=none;" vertex="1" parent="1">
          <mxGeometry x="25" y="418" width="50" height="30" as="geometry" />
        </mxCell>
        <mxCell id="jyzeREe8RjWVEG3jsHg6-27" style="edgeStyle=orthogonalEdgeStyle;rounded=0;orthogonalLoop=1;jettySize=auto;html=1;exitX=0;exitY=1;exitDx=0;exitDy=0;entryX=0.75;entryY=0;entryDx=0;entryDy=0;" edge="1" parent="1" source="jyzeREe8RjWVEG3jsHg6-24" target="jyzeREe8RjWVEG3jsHg6-12">
          <mxGeometry relative="1" as="geometry">
            <Array as="points">
              <mxPoint x="410" y="600" />
              <mxPoint x="410" y="740" />
            </Array>
          </mxGeometry>
        </mxCell>
        <mxCell id="jyzeREe8RjWVEG3jsHg6-31" style="edgeStyle=orthogonalEdgeStyle;rounded=0;orthogonalLoop=1;jettySize=auto;html=1;exitX=1;exitY=1;exitDx=0;exitDy=0;entryX=1;entryY=0.5;entryDx=0;entryDy=0;" edge="1" parent="1" source="jyzeREe8RjWVEG3jsHg6-24" target="jyzeREe8RjWVEG3jsHg6-7">
          <mxGeometry relative="1" as="geometry">
            <Array as="points">
              <mxPoint x="770" y="600" />
              <mxPoint x="770" y="245" />
            </Array>
          </mxGeometry>
        </mxCell>
        <mxCell id="jyzeREe8RjWVEG3jsHg6-24" value="Kalan hak bitti mi?" style="rhombus;whiteSpace=wrap;html=1;" vertex="1" parent="1">
          <mxGeometry x="510" y="540" width="190" height="80" as="geometry" />
        </mxCell>
        <mxCell id="jyzeREe8RjWVEG3jsHg6-28" value="evet&lt;br&gt;" style="text;html=1;align=center;verticalAlign=middle;resizable=0;points=[];autosize=1;strokeColor=none;fillColor=none;" vertex="1" parent="1">
          <mxGeometry x="310" y="565" width="50" height="30" as="geometry" />
        </mxCell>
        <mxCell id="jyzeREe8RjWVEG3jsHg6-29" value="evet" style="text;html=1;align=center;verticalAlign=middle;resizable=0;points=[];autosize=1;strokeColor=none;fillColor=none;" vertex="1" parent="1">
          <mxGeometry x="450" y="570" width="50" height="30" as="geometry" />
        </mxCell>
        <mxCell id="jyzeREe8RjWVEG3jsHg6-32" value="hayır" style="text;html=1;align=center;verticalAlign=middle;resizable=0;points=[];autosize=1;strokeColor=none;fillColor=none;" vertex="1" parent="1">
          <mxGeometry x="720" y="600" width="50" height="30" as="geometry" />
        </mxCell>
        <mxCell id="jyzeREe8RjWVEG3jsHg6-35" style="edgeStyle=orthogonalEdgeStyle;rounded=0;orthogonalLoop=1;jettySize=auto;html=1;exitX=0.5;exitY=1;exitDx=0;exitDy=0;entryX=0.5;entryY=0;entryDx=0;entryDy=0;" edge="1" parent="1" source="jyzeREe8RjWVEG3jsHg6-33" target="jyzeREe8RjWVEG3jsHg6-7">
          <mxGeometry relative="1" as="geometry" />
        </mxCell>
        <mxCell id="jyzeREe8RjWVEG3jsHg6-33" value="Kullanıcıdan Harf iste" style="rounded=1;whiteSpace=wrap;html=1;" vertex="1" parent="1">
          <mxGeometry x="300" y="170" width="220" height="30" as="geometry" />
        </mxCell>
      </root>
    </mxGraphModel>
  </diagram>
</mxfile>
